PathFileType	4	(X/Y/Z)	Patient4_TMGait_0pt3_01_right_03.trc.trc
DataRate	CameraRate	NumFrames	NumMarkers	Units	OrigDataRate	OrigDataStartFrame	OrigNumFrames
52.238805970149	52.238805970149	6	33	mm	52.238805970149	1	       141
Frame#	Time	Sacral			L.Shoulder			Chest			R.Shoulder			Neck			R.ASIS			L.ASIS			R.Thigh.Superior			R.Thigh.Lateral			R.Thigh.Inferior			R.Patella			L.Thigh.Superior			L.Thigh.Lateral			L.Thigh.Inferior			L.Patella			L.Shank.Superior			L.Shank.Lateral			L.Shank.Inferior			R.Shank.Superior			R.Shank.Lateral			R.Shank.Inferior			R.Heel			R.Midfoot.Superior			R.Midfoot.Lateral			R.Toe			L.Heel			L.Midfoot.Lateral			L.Midfoot.Superior			L.Toe			L.Elbow			L.Wrist			R.Elbow			R.Wrist			
		X1	Y1	Z1	X2	Y2	Z2	X3	Y3	Z3	X4	Y4	Z4	X5	Y5	Z5	X6	Y6	Z6	X7	Y7	Z7	X8	Y8	Z8	X9	Y9	Z9	X10	Y10	Z10	X11	Y11	Z11	X12	Y12	Z12	X13	Y13	Z13	X14	Y14	Z14	X15	Y15	Z15	X16	Y16	Z16	X17	Y17	Z17	X18	Y18	Z18	X19	Y19	Z19	X20	Y20	Z20	X21	Y21	Z21	X22	Y22	Z22	X23	Y23	Z23	X24	Y24	Z24	X25	Y25	Z25	X26	Y26	Z26	X27	Y27	Z27	X28	Y28	Z28	X29	Y29	Z29	X30	Y30	Z30	X31	Y31	Z31	X32	Y32	Z32	X33	Y33	Z33	

1	3.970000000000	792.118879229249	995.334359823846	451.881909555875	923.459314654117	1422.799013328533	242.652477316050	1043.655036615531	1371.021522293840	397.350537556369	971.307808546680	1451.561206192131	573.125080199386	922.543312088814	1494.061429143518	397.448939078942	1029.752777037652	943.179436507843	557.870939557081	1003.999548046178	969.572668920831	284.092123863328	1101.279192358676	757.057945164540	523.233551547711	1050.549453708275	637.049653358400	592.518092410317	1133.956869477918	592.762488571983	508.682409219734	1141.153987586374	478.554099508154	531.950979565046	1063.313911047006	755.722815107977	318.979230748416	978.269167346129	633.956642160326	264.423081449917	1062.927906952092	560.992476914543	330.784371625259	1063.134080763559	491.975569359745	342.213570103240	1038.096912759667	418.569689104903	335.439304385695	949.236660503719	301.286359498633	291.349587783849	1004.329503246309	193.644101339222	364.816399409481	1058.938828044940	411.023566280985	542.168147192283	930.550476077496	382.156928724919	593.184527998192	915.356319689139	269.860069684998	553.343581431184	717.754004315928	223.054537192909	505.936231716998	871.547661759074	149.865246435274	577.931949570923	760.523957934983	174.900249792708	596.257794916009	911.616263874843	37.492334748495	634.682587184247	879.628300088039	37.432367628493	415.211253816891	947.531766147683	35.321800884540	329.034168791020	1031.288955320541	97.973656231193	350.954897305873	1157.010455718213	51.676216324976	312.497770048195	953.381451926019	1071.406804582668	127.309010673275	1101.425536897853	856.334460744590	118.395680702680	1071.214213066224	1115.737596702145	690.703535326378	1324.257046879463	1052.499483512871	674.371591035163	
2	3.989142857143	790.716895315862	994.542228894003	448.009224475452	926.180157651037	1423.447381009782	241.894430122886	1043.420706902360	1370.589247211014	398.383525203477	968.135330643215	1449.953468685942	573.298796763355	922.797185714632	1493.975508292955	396.905303190621	1026.984517784680	943.521274312904	556.760517416273	1004.676777370201	969.087686215919	283.002643207058	1101.378325147325	759.045766886906	521.898222539430	1052.582417309322	638.725473326426	591.164450087035	1136.042606019430	595.403244305124	506.810714366254	1145.325945473672	481.490055172606	530.199882366653	1063.473824067865	755.006248336482	318.536159583103	978.640329958051	633.149104353802	263.678752781894	1062.606152812536	560.161396529199	330.980367418978	1062.635843424098	490.787150025806	342.386578124365	1036.587063545178	417.448485359751	335.578766470066	946.599369933377	301.106591598036	291.271767869117	1000.063137265784	192.985771755995	365.063637693896	1064.554834199242	412.543638914720	540.836063726595	937.142761493949	380.838053747465	592.738593197258	924.188966373004	268.417051562677	552.659501009664	727.080361388303	214.629191745924	506.160850075723	883.828541407230	149.353921052809	577.904891522760	772.209306363212	169.184511902379	596.594509132474	929.299109106269	39.846312954799	635.311192507560	873.699381499227	37.436320103711	415.208368259656	941.675960150680	35.355687976199	329.052728206504	1025.606273097373	97.773187911408	351.187094077737	1151.223717400930	51.251429489594	312.557423094665	959.982311078593	1073.125024512103	124.791901143181	1115.581383599966	863.820835908428	117.990602193788	1057.959809354095	1111.129598494129	691.251010484048	1300.389296057983	1024.404173004008	679.602540227819	
3	4.008285714286	789.281662825233	993.758899226311	444.097525441510	928.999560355245	1424.063231672856	241.178070868794	1043.232154113120	1370.085847358346	399.460762456212	964.985662556476	1448.276923987017	573.496366145133	923.126469560804	1493.845343945498	396.434859142488	1024.210409212910	943.855258652330	555.710245165850	1005.350817201991	968.532520363687	281.929626390390	1101.353399627469	760.955490976102	520.677992232353	1054.399831608424	640.349979949751	589.934990312854	1137.957042572134	597.972447014780	505.139707529271	1149.360836476006	484.460889424356	528.692210281056	1063.625467061254	754.250814570540	318.114720716939	979.000473147565	632.297405010918	262.956174651612	1062.287337998054	559.285609347684	331.176998540244	1062.140500397926	489.554964236383	342.567214860195	1035.054730836519	416.276283878267	335.730385259349	943.905272360041	300.909214684419	291.205236420081	995.677610664964	192.293422961252	365.315303944114	1070.202736733297	414.011116948579	539.768536189825	943.875032939765	379.149311632082	592.475948463827	933.533492022499	266.565468646561	552.225384733461	737.279841792287	205.230482284654	506.601248213395	896.932838553473	148.341138245631	578.060381913124	784.804750566903	162.633277790011	597.131896278370	948.046073490615	41.953888030373	636.074089602598	867.633005708657	37.444945133912	415.206908041637	935.684192965432	35.392199293793	329.069562849873	1019.793183888021	97.564105391516	351.422172046536	1145.309056440518	50.794367968358	312.615160555622	966.752209631693	1074.844229140270	122.311256097623	1130.049260816360	871.560336848773	117.686569895915	1044.389199100244	1106.488151210684	691.863095389799	1275.086420164406	996.094491142190	684.817711727766	
4	4.027428571429	787.851912522798	993.030875227720	440.264998032266	931.891844657164	1424.628527156614	240.555449818781	1043.127307355149	1369.512127584699	400.582005358600	961.976730676634	1446.574264082199	573.730981527876	923.567738895765	1493.671732110138	396.091872529632	1021.503341949953	944.172696153442	554.791753537774	1005.994829632831	967.898183283567	280.935161210330	1101.132941267487	762.694148703992	519.686409798335	1055.815030932096	641.858562949423	588.947246939814	1139.524035582781	600.355382748335	503.838856943370	1153.032263281542	487.405574082824	527.603292042579	1063.736786557358	753.462526618967	317.754799106730	979.296461852748	631.420551670926	262.293907642089	1061.931442950951	558.374366153859	331.375792668588	1061.604401939280	488.304141036788	342.757911667425	1033.486771486958	415.077242118237	335.895642526888	941.169547922574	300.697039313281	291.157835148812	991.226006880065	191.579132760649	365.562551922028	1075.709135978747	415.374257337451	539.129478416253	950.634850583109	376.975136246035	592.507220062745	943.385799367554	264.204435200743	552.175813438882	748.541376371269	194.731666769624	507.351974630172	910.922827868881	146.672887031338	578.488528107864	798.449342317676	155.096322809909	597.947934194275	967.843550720605	43.692390904049	636.995296963211	861.536311580540	37.460038851129	415.206187337951	929.660501842205	35.430565176889	329.083878976887	1013.951064981691	97.350891773461	351.652786588404	1139.371271706369	50.306938586737	312.667740616966	973.566149163959	1076.527281018113	119.972821557149	1144.540997760257	879.489946117086	117.558989648621	1030.679120778384	1101.990516868836	692.533179340942	1248.375819372015	968.475291125422	689.821572520425	
5	4.046571428571	786.470033405403	992.407739978090	436.613047579703	934.845626459105	1425.142363285127	240.073072653568	1043.141759951047	1368.884792159315	401.754582320903	959.204528304337	1444.897263884242	574.016869503632	924.153605651536	1493.471187428230	395.914877307879	1018.916235781151	944.478412316118	554.065938946477	1006.586188304397	967.183778430344	280.082496638276	1100.656455719215	764.196469320432	519.027767642049	1056.662774296038	643.205416121550	588.299522518922	1140.588448152667	602.465177217013	503.053246028363	1156.144688763023	490.286571934333	527.069705982243	1063.766174658332	752.647491500893	317.497067572590	979.458034111593	630.544348994719	261.724889765904	1061.466476742799	557.437327608240	331.581653309690	1060.945330528650	487.060776600788	342.964857975550	1031.831211086234	413.880020620543	336.077062503130	938.371871691377	300.476196498186	291.135385208749	986.727826636634	190.858517185446	365.796930742420	1080.931914043781	416.606389700342	539.032871718374	957.365334655313	374.229477083709	592.930140192946	953.768186666675	261.290858107431	552.600601149669	761.063799360932	183.091985426231	508.487089881746	925.883339534523	144.275471522101	579.248155628452	813.308222720771	146.506828759694	599.096066601690	988.705731682498	45.012877137171	638.062141534089	855.481301620255	37.483136509301	415.204597786635	923.673310394273	35.469790667615	329.095039140989	1008.145223458009	97.139111365060	351.871695736299	1133.478858910060	49.794235694805	312.712633883903	980.328969326439	1078.157653006450	117.865625338039	1158.842426573100	887.601834754768	117.675422398798	1016.900754079300	1097.808365229677	693.242147519892	1220.245150330195	942.354286020303	694.439780136961	
6	4.065714285714	785.181493741700	991.938700388995	433.224762800587	937.861011287858	1425.621573241637	239.769267331439	1043.305706691391	1368.237779708341	402.992525358839	956.737994757963	1443.306942133084	574.368824183460	924.909439450306	1493.275666679487	395.925183056263	1016.482073313676	944.790032071244	553.579394787532	1007.112286149933	966.402562743793	279.431118564717	1099.881493564372	765.429373752928	518.787148650963	1056.816134672627	644.367639942828	588.063803670503	1141.028211958867	604.247909947385	502.888717868725	1158.544986691103	493.088801691455	527.173958571349	1063.663844190758	751.812691990775	317.381124619512	979.401477283886	629.701839232745	261.274847193669	1060.791672003609	556.486167671777	331.803104383367	1060.046271279651	485.852532570645	343.197030636060	1030.000971783475	412.718567323393	336.277304285600	935.459667480693	300.256498559331	291.141032697474	982.173395818163	190.151440041185	366.010624101780	1085.763283416161	417.708982171811	539.529651360327	964.057916487497	370.876692722327	593.816210388616	964.704295032859	257.857811621408	553.533312188741	775.008761254594	170.396641117684	510.048383010826	941.881782509320	141.178195570077	580.358202592875	829.525001593414	136.919387183929	600.595242975036	1010.628994662196	45.953061656236	639.225650367306	849.506964283010	37.515277230242	415.199586769867	917.757985429922	35.508680565995	329.102621261677	1002.407323020732	96.935330903172	352.071999192068	1127.666157272478	49.265595390266	312.748240349886	986.973059476084	1079.739563453616	116.057717794694	1172.808276197181	895.933783462122	118.090171001458	1003.031100976503	1094.104405931494	693.956240675549	1190.703823050887	918.414906748068	698.528233335445	
